<mxfile host="Electron" agent="Mozilla/5.0 (Windows NT 10.0; Win64; x64) AppleWebKit/537.36 (KHTML, like Gecko) draw.io/28.2.5 Chrome/138.0.7204.251 Electron/37.6.1 Safari/537.36" version="28.2.5">
  <diagram name="Page-1" id="KdtmhHhNzTOjUc6dU8ZZ">
    <mxGraphModel dx="815" dy="481" grid="1" gridSize="10" guides="1" tooltips="1" connect="1" arrows="1" fold="1" page="1" pageScale="1" pageWidth="850" pageHeight="1100" math="0" shadow="0">
      <root>
        <mxCell id="0" />
        <mxCell id="1" parent="0" />
        <mxCell id="P6PJtzx1j1ZGamk91ari-1" value="Administrateur" style="shape=umlActor;verticalLabelPosition=bottom;verticalAlign=top;html=1;outlineConnect=0;" vertex="1" parent="1">
          <mxGeometry x="70" y="90" width="30" height="60" as="geometry" />
        </mxCell>
        <mxCell id="P6PJtzx1j1ZGamk91ari-4" value="" style="rounded=0;whiteSpace=wrap;html=1;" vertex="1" parent="1">
          <mxGeometry x="190" y="20" width="240" height="700" as="geometry" />
        </mxCell>
        <mxCell id="P6PJtzx1j1ZGamk91ari-5" value="AutoMaroc Location" style="text;html=1;align=center;verticalAlign=middle;whiteSpace=wrap;rounded=0;" vertex="1" parent="1">
          <mxGeometry x="245" y="20" width="130" height="30" as="geometry" />
        </mxCell>
        <mxCell id="P6PJtzx1j1ZGamk91ari-6" value="Client" style="shape=umlActor;verticalLabelPosition=bottom;verticalAlign=top;html=1;outlineConnect=0;" vertex="1" parent="1">
          <mxGeometry x="70" y="315" width="30" height="60" as="geometry" />
        </mxCell>
        <mxCell id="P6PJtzx1j1ZGamk91ari-7" value="Agent de location" style="shape=umlActor;verticalLabelPosition=bottom;verticalAlign=top;html=1;outlineConnect=0;" vertex="1" parent="1">
          <mxGeometry x="70" y="530" width="30" height="60" as="geometry" />
        </mxCell>
        <mxCell id="P6PJtzx1j1ZGamk91ari-8" value="Gérer des r&lt;span style=&quot;font-family: Arial, sans-serif; background-color: transparent; color: light-dark(rgb(0, 0, 0), rgb(255, 255, 255));&quot;&gt;ô&lt;/span&gt;le" style="ellipse;whiteSpace=wrap;html=1;" vertex="1" parent="1">
          <mxGeometry x="240" y="60" width="140" height="50" as="geometry" />
        </mxCell>
        <mxCell id="P6PJtzx1j1ZGamk91ari-9" value="Gérer les voitures" style="ellipse;whiteSpace=wrap;html=1;" vertex="1" parent="1">
          <mxGeometry x="240" y="120" width="140" height="50" as="geometry" />
        </mxCell>
        <mxCell id="P6PJtzx1j1ZGamk91ari-11" value="Consulter les resultats" style="ellipse;whiteSpace=wrap;html=1;" vertex="1" parent="1">
          <mxGeometry x="240" y="180" width="140" height="50" as="geometry" />
        </mxCell>
        <mxCell id="P6PJtzx1j1ZGamk91ari-15" value="" style="endArrow=classic;html=1;rounded=0;curved=1;" edge="1" parent="1" source="P6PJtzx1j1ZGamk91ari-1" target="P6PJtzx1j1ZGamk91ari-8">
          <mxGeometry width="50" height="50" relative="1" as="geometry">
            <mxPoint x="110" y="120" as="sourcePoint" />
            <mxPoint x="160" y="70" as="targetPoint" />
            <Array as="points">
              <mxPoint x="130" y="80" />
              <mxPoint x="160" y="70" />
              <mxPoint x="200" y="70" />
            </Array>
          </mxGeometry>
        </mxCell>
        <mxCell id="P6PJtzx1j1ZGamk91ari-16" value="" style="endArrow=classic;html=1;rounded=0;entryX=0;entryY=0.5;entryDx=0;entryDy=0;curved=1;" edge="1" parent="1" source="P6PJtzx1j1ZGamk91ari-1" target="P6PJtzx1j1ZGamk91ari-9">
          <mxGeometry width="50" height="50" relative="1" as="geometry">
            <mxPoint x="100" y="130" as="sourcePoint" />
            <mxPoint x="150" y="80" as="targetPoint" />
            <Array as="points">
              <mxPoint x="140" y="100" />
              <mxPoint x="180" y="100" />
              <mxPoint x="210" y="110" />
            </Array>
          </mxGeometry>
        </mxCell>
        <mxCell id="P6PJtzx1j1ZGamk91ari-17" value="" style="endArrow=classic;html=1;rounded=0;entryX=0.023;entryY=0.414;entryDx=0;entryDy=0;entryPerimeter=0;curved=1;" edge="1" parent="1" source="P6PJtzx1j1ZGamk91ari-1" target="P6PJtzx1j1ZGamk91ari-11">
          <mxGeometry width="50" height="50" relative="1" as="geometry">
            <mxPoint x="100" y="150" as="sourcePoint" />
            <mxPoint x="150" y="100" as="targetPoint" />
            <Array as="points">
              <mxPoint x="140" y="130" />
              <mxPoint x="190" y="130" />
              <mxPoint x="230" y="160" />
            </Array>
          </mxGeometry>
        </mxCell>
        <mxCell id="P6PJtzx1j1ZGamk91ari-18" value="S&#39;authentifier" style="ellipse;whiteSpace=wrap;html=1;" vertex="1" parent="1">
          <mxGeometry x="240" y="260" width="140" height="50" as="geometry" />
        </mxCell>
        <mxCell id="P6PJtzx1j1ZGamk91ari-20" value="Consulter les voitures disponibles" style="ellipse;whiteSpace=wrap;html=1;" vertex="1" parent="1">
          <mxGeometry x="212.5" y="390" width="195" height="60" as="geometry" />
        </mxCell>
        <mxCell id="P6PJtzx1j1ZGamk91ari-21" value="Réserver une voiture" style="ellipse;whiteSpace=wrap;html=1;" vertex="1" parent="1">
          <mxGeometry x="237.5" y="320" width="145" height="50" as="geometry" />
        </mxCell>
        <mxCell id="P6PJtzx1j1ZGamk91ari-22" value="Créer un contrat de location" style="ellipse;whiteSpace=wrap;html=1;" vertex="1" parent="1">
          <mxGeometry x="230" y="550" width="160" height="50" as="geometry" />
        </mxCell>
        <mxCell id="P6PJtzx1j1ZGamk91ari-23" value="Enregistrer un paiement" style="ellipse;whiteSpace=wrap;html=1;" vertex="1" parent="1">
          <mxGeometry x="240" y="630" width="140" height="50" as="geometry" />
        </mxCell>
        <mxCell id="P6PJtzx1j1ZGamk91ari-26" value="Modifier/annuler une réservation" style="ellipse;whiteSpace=wrap;html=1;" vertex="1" parent="1">
          <mxGeometry x="220" y="470" width="180" height="50" as="geometry" />
        </mxCell>
        <mxCell id="P6PJtzx1j1ZGamk91ari-27" value="" style="endArrow=classic;html=1;rounded=0;curved=1;entryX=0.023;entryY=0.334;entryDx=0;entryDy=0;entryPerimeter=0;" edge="1" parent="1" target="P6PJtzx1j1ZGamk91ari-18">
          <mxGeometry width="50" height="50" relative="1" as="geometry">
            <mxPoint x="100" y="337" as="sourcePoint" />
            <mxPoint x="245" y="306" as="targetPoint" />
            <Array as="points">
              <mxPoint x="130" y="310" />
              <mxPoint x="180" y="290" />
              <mxPoint x="200" y="285" />
            </Array>
          </mxGeometry>
        </mxCell>
        <mxCell id="P6PJtzx1j1ZGamk91ari-29" value="" style="endArrow=classic;html=1;rounded=0;curved=1;entryX=0;entryY=0;entryDx=0;entryDy=0;" edge="1" parent="1" source="P6PJtzx1j1ZGamk91ari-1" target="P6PJtzx1j1ZGamk91ari-18">
          <mxGeometry width="50" height="50" relative="1" as="geometry">
            <mxPoint x="70.5" y="256" as="sourcePoint" />
            <mxPoint x="212.5" y="200" as="targetPoint" />
            <Array as="points">
              <mxPoint x="160" y="190" />
            </Array>
          </mxGeometry>
        </mxCell>
        <mxCell id="P6PJtzx1j1ZGamk91ari-30" value="" style="endArrow=classic;html=1;rounded=0;curved=1;entryX=0.06;entryY=0.746;entryDx=0;entryDy=0;entryPerimeter=0;" edge="1" parent="1" source="P6PJtzx1j1ZGamk91ari-7" target="P6PJtzx1j1ZGamk91ari-18">
          <mxGeometry width="50" height="50" relative="1" as="geometry">
            <mxPoint x="100" y="570" as="sourcePoint" />
            <mxPoint x="260" y="703" as="targetPoint" />
            <Array as="points">
              <mxPoint x="140" y="470" />
            </Array>
          </mxGeometry>
        </mxCell>
        <mxCell id="P6PJtzx1j1ZGamk91ari-31" value="" style="endArrow=classic;html=1;rounded=0;entryX=0.017;entryY=0.6;entryDx=0;entryDy=0;entryPerimeter=0;" edge="1" parent="1" source="P6PJtzx1j1ZGamk91ari-6" target="P6PJtzx1j1ZGamk91ari-21">
          <mxGeometry width="50" height="50" relative="1" as="geometry">
            <mxPoint x="120" y="380" as="sourcePoint" />
            <mxPoint x="170" y="330" as="targetPoint" />
          </mxGeometry>
        </mxCell>
        <mxCell id="P6PJtzx1j1ZGamk91ari-32" value="" style="endArrow=classic;html=1;rounded=0;entryX=0.017;entryY=0.426;entryDx=0;entryDy=0;entryPerimeter=0;" edge="1" parent="1" source="P6PJtzx1j1ZGamk91ari-6" target="P6PJtzx1j1ZGamk91ari-20">
          <mxGeometry width="50" height="50" relative="1" as="geometry">
            <mxPoint x="100" y="375" as="sourcePoint" />
            <mxPoint x="150" y="325" as="targetPoint" />
          </mxGeometry>
        </mxCell>
        <mxCell id="P6PJtzx1j1ZGamk91ari-33" value="" style="endArrow=classic;html=1;rounded=0;entryX=0.037;entryY=0.386;entryDx=0;entryDy=0;entryPerimeter=0;" edge="1" parent="1" source="P6PJtzx1j1ZGamk91ari-6" target="P6PJtzx1j1ZGamk91ari-26">
          <mxGeometry width="50" height="50" relative="1" as="geometry">
            <mxPoint x="90" y="440" as="sourcePoint" />
            <mxPoint x="140" y="390" as="targetPoint" />
          </mxGeometry>
        </mxCell>
        <mxCell id="P6PJtzx1j1ZGamk91ari-34" value="" style="endArrow=classic;html=1;rounded=0;entryX=0.099;entryY=0.74;entryDx=0;entryDy=0;entryPerimeter=0;curved=1;" edge="1" parent="1" source="P6PJtzx1j1ZGamk91ari-7" target="P6PJtzx1j1ZGamk91ari-20">
          <mxGeometry width="50" height="50" relative="1" as="geometry">
            <mxPoint x="100" y="550" as="sourcePoint" />
            <mxPoint x="150" y="500" as="targetPoint" />
            <Array as="points">
              <mxPoint x="160" y="470" />
            </Array>
          </mxGeometry>
        </mxCell>
        <mxCell id="P6PJtzx1j1ZGamk91ari-36" value="" style="endArrow=classic;html=1;rounded=0;curved=1;entryX=0.028;entryY=0.683;entryDx=0;entryDy=0;entryPerimeter=0;" edge="1" parent="1" source="P6PJtzx1j1ZGamk91ari-7" target="P6PJtzx1j1ZGamk91ari-26">
          <mxGeometry width="50" height="50" relative="1" as="geometry">
            <mxPoint x="130" y="570" as="sourcePoint" />
            <mxPoint x="180" y="520" as="targetPoint" />
            <Array as="points">
              <mxPoint x="160" y="500" />
            </Array>
          </mxGeometry>
        </mxCell>
        <mxCell id="P6PJtzx1j1ZGamk91ari-37" value="" style="endArrow=classic;html=1;rounded=0;entryX=0.026;entryY=0.409;entryDx=0;entryDy=0;entryPerimeter=0;" edge="1" parent="1" source="P6PJtzx1j1ZGamk91ari-7" target="P6PJtzx1j1ZGamk91ari-22">
          <mxGeometry width="50" height="50" relative="1" as="geometry">
            <mxPoint x="120" y="600" as="sourcePoint" />
            <mxPoint x="170" y="550" as="targetPoint" />
          </mxGeometry>
        </mxCell>
        <mxCell id="P6PJtzx1j1ZGamk91ari-38" value="" style="endArrow=classic;html=1;rounded=0;entryX=0.044;entryY=0.34;entryDx=0;entryDy=0;entryPerimeter=0;" edge="1" parent="1" source="P6PJtzx1j1ZGamk91ari-7" target="P6PJtzx1j1ZGamk91ari-23">
          <mxGeometry width="50" height="50" relative="1" as="geometry">
            <mxPoint x="190" y="700" as="sourcePoint" />
            <mxPoint x="240" y="650" as="targetPoint" />
          </mxGeometry>
        </mxCell>
      </root>
    </mxGraphModel>
  </diagram>
</mxfile>
